<svg version="1.1" xmlns="http://www.w3.org/2000/svg" xmlns:xlink="http://www.w3.org/1999/xlink" width="191.30001" height="204.10383" viewBox="0,0,191.30001,204.10383"><g transform="translate(-144.35001,-77.94809)"><g data-paper-data="{&quot;isPaintingLayer&quot;:true}" fill-rule="nonzero" stroke="none" stroke-width="0" stroke-linecap="butt" stroke-linejoin="miter" stroke-miterlimit="10" stroke-dasharray="" stroke-dashoffset="0" style="mix-blend-mode: normal"><path d="M201.37501,107.9655c0,0 -8.13368,0.13399 -11.8589,-1.18747c-3.88375,-1.3777 -3.85975,-4.23595 -3.5586,-5.39846c0.16649,-0.64275 1.05953,-2.33723 2.91935,-3.88688c1.26215,-1.05166 3.14937,-2.03663 4.86173,-2.58091c2.1394,-0.68002 4.53964,-0.9994 6.56938,-1.04899c2.63816,-0.06446 4.65039,0.26938 4.65039,0.26938l17.625,5.75l-10.58333,7.08333z" fill="#000000"/><path d="M200.22918,88.38217c-0.87103,-1.55906 -1.16101,-3.32203 -0.81975,-4.94878c0.52161,-2.48642 2.4066,-4.65459 5.07244,-5.28992c0.9353,-0.2229 3.4574,-0.40399 5.84606,0.33706c2.25952,0.70099 4.40841,2.31477 4.68286,2.50907c2.79225,1.97685 6.10692,4.82721 8.28701,7.66737c2.31681,3.0183 4.0804,6.21297 5.23037,8.82366c1.42341,3.23147 1.86768,5.5682 1.86768,5.5682c0,0 -5.36016,0.07481 -10.99667,-1.557c-7.26157,-2.10227 -15.5316,-6.59723 -19.17,-13.10967z" fill="#000000"/><path d="M335.65001,204.60191c0,14.83781 -6.11584,34.54997 -16.37618,46.927c-7.77974,9.38468 -18.14222,17.09417 -29.8281,22.08017c-14.34876,6.12218 -30.79429,8.44284 -48.14572,8.44284c-9.71416,0 -21.12086,-0.89509 -31.06043,-3.28193c-18.03651,-4.33119 -33.99342,-12.65731 -45.73153,-22.96333c-15.168,-13.31745 -20.15804,-31.47002 -20.15804,-49.60474c0,-8.36519 0.68692,-17.85745 3.43034,-27.64947c2.65604,-9.48011 7.27725,-19.24119 12.81755,-28.53251c8.18606,-13.72837 18.95325,-26.4312 31.12987,-35.6868c11.67408,-8.87362 24.65983,-14.5787 37.17224,-14.98121c3.10862,-0.1 6.19974,-0.20285 9.30186,-0.11869c8.79525,0.23862 17.69185,1.37673 27.44938,5.06252c14.40124,5.4399 30.29694,16.3699 40.93361,27.42076c20.57574,21.37696 29.06516,47.64141 29.06516,72.88541z" fill="#000000"/><path d="M332.07737,200.85415c0,3.83741 0.40289,12.23714 -2.1043,21.81159c-2.84165,10.85167 -9.019,23.14528 -16.40733,30.79054c-5.32543,5.51062 -15.37616,12.67094 -22.00834,16.05656c-5.40391,2.75861 -20.83186,6.9225 -29.76803,8.05584c-20.41218,2.58881 -37.77771,-0.69106 -44.08597,-1.794c-17.29341,-3.02359 -32.50287,-9.36919 -46.4709,-20.71281c-8.68395,-7.05235 -16.0718,-16.07235 -19.53899,-24.9241c-4.93677,-12.60361 -4.0984,-24.86613 -4.0984,-30.62197c0,-6.26238 2.85068,-19.55872 9.16739,-34.05313c4.15708,-9.53889 10.3184,-19.59666 16.97597,-28.50992c8.14368,-10.90288 26.58633,-28.27655 47.97182,-33.73844c18.18028,-4.64327 39.40263,1.34881 48.49042,5.67236c10.52829,5.00887 26.16316,16.13217 34.8465,25.52037c10.77518,10.38176 18.31861,25.31862 22.34537,37.13982c4.37548,12.84493 4.68482,24.26313 4.68482,29.3073z" fill="#d6002d"/><path d="M183.28054,263.39504c0,0 3.7509,-3.91757 5.5,-5.66666c0.76218,-0.76218 1.86898,-1.85104 2.94749,-2.81816c1.31793,-1.18181 3.46918,-2.68184 3.46918,-2.68184l0.66666,6.16666c0,0 1.1892,-2.11265 2.79478,-4.38503c1.13261,-1.60297 2.55614,-3.28543 3.54898,-4.36183c1.13172,-1.22697 2.75932,-2.88856 4.38607,-4.14714c1.35942,-1.05175 3.20754,-2.09479 3.20754,-2.09479l-0.19846,7.43636c0,0 2.15759,-2.71045 5.32022,-5.29949c2.68506,-2.19807 6.07977,-4.298 8.78143,-5.55733c1.76718,-0.82373 6.52288,-2.96062 12.13751,-4.53535c5.67605,-1.59195 12.20191,-2.52645 12.20191,-2.52645l30.8131,5.45782c0,0 2.42332,1.11055 5.27369,3.08747c0.94687,0.65671 3.01969,2.30068 4.95354,4.21544c2.00752,1.9877 3.87233,4.25308 4.56455,5.22418c1.44815,2.03155 2.7675,4.15318 2.7675,4.15318l1.98498,-3.53896c0,0 0.77112,0.63262 1.45178,1.42724c0.60519,0.70652 1.10078,1.54111 1.50041,2.17298c0.76929,1.21635 1.92668,4.11392 1.92668,4.11392l1.09681,-0.70031c0,0 0.48785,0.73488 0.67514,1.08161c0.17348,0.32117 0.41034,0.92797 0.41034,0.92797c0,0 -1.83069,1.57388 -4.56292,3.34811c-3.77759,2.45306 -8.16457,5.36604 -14.58937,7.74986c-7.11166,2.63867 -15.47635,4.60297 -23.3214,5.71776c-6.0887,0.86522 -11.86439,1.15755 -16.49832,1.24666c-7.00134,0.13464 -22.75349,-1.00658 -32.23569,-3.39253c-8.45194,-2.12671 -16.30717,-4.54555 -21.50883,-6.89308c-6.07068,-2.73973 -9.46529,-4.92831 -9.46529,-4.92831z" fill="#e2c4a8"/><path d="M231.94721,201.14504l13.16666,1l4.41666,21.5c0,0 -5.8476,1.82948 -8.57648,2.01659c-5.10084,0.34976 -9.03182,-1.09002 -10.63828,-3.14568c-0.60031,-0.76818 -1.39697,-2.04309 -1.90874,-3.57979c-0.4923,-1.47826 -0.71474,-3.19876 -0.55396,-4.94343c0.27523,-2.98644 1.17537,-6.12131 2.10939,-8.54679c0.9778,-2.5392 1.98474,-4.30091 1.98474,-4.30091z" fill="#9c002d"/><path d="M284.03054,219.31171v-15.41667l13.66667,-0.25c0,0 3.05525,6.51672 1.70414,11.61217c-1.93133,7.2836 -6.70414,7.88783 -6.70414,7.88783z" fill="#9c002d"/><path d="M249.28054,222.56171c0,0 -1.35597,-0.19226 -2.83801,-0.65156c-0.97328,-0.30163 -2.00093,-0.76581 -2.73463,-1.19985c-2.75815,-1.63167 -4.35834,-4.01508 -5.18545,-5.76745c-0.93142,-1.97334 -1.37697,-5.47295 -0.95084,-8.37512c0.3925,-2.67309 1.87561,-4.83936 1.87561,-4.83936l28.41666,0.75l-0.16666,11.75z" fill="#000000"/><path d="M267.36386,214.47838l-0.33334,-11.66666l25.91667,0.5c0,0 0.49684,1.75402 0.73093,3.807c0.22337,1.95899 0.27593,4.19018 -0.04602,5.42935c-0.31475,1.21147 -1.03617,2.96766 -1.99034,4.34094c-1.43883,2.07081 -3.27791,3.58937 -3.27791,3.58937z" fill="#000000"/><path d="M226.03803,103.53369l-8.18837,1.9908c0,0 -11.86431,0.45655 -16.06961,0.45655c-7.30001,0 -12.57698,-1.06865 -12.57698,-4.16562c0,-3.09698 5.43718,-6.24844 12.7372,-6.24844c3.29346,0 8.52012,1.47871 13.26527,3.25869c5.77255,2.16537 10.83249,4.70802 10.83249,4.70802z" fill="#d6002d"/><path d="M223.0995,102.92626c0,0 -11.21639,-6.32632 -16.56555,-11.09463c-1.51924,-1.35427 -3.00181,-2.78299 -3.80544,-4.00322c-0.89867,-1.36455 -0.86835,-2.46837 -0.86835,-2.91582c0,-2.25637 2.42211,-4.24573 5.60757,-4.24573c0.49638,0 2.60893,-0.24246 5.71704,1.63161c2.51321,1.51537 5.04264,3.41633 7.39285,5.91521c2.51666,2.67587 5.34597,7.22273 6.56554,9.75923c1.14708,2.38572 1.56031,4.28708 1.56031,4.28708z" fill="#d6002d"/><path d="M254.36387,219.81171c0,0 -4.61983,-0.20536 -6.97835,-0.83155c-3.36578,-0.89361 -4.81012,-2.7215 -6.15239,-4.30782c-1.28569,-1.51945 -2.12805,-4.6301 -2.14897,-7.36105c-0.02092,-2.73136 0.77971,-5.08292 0.77971,-5.08292l26.66666,1.91667c0,0 0.47526,2.49954 0.46204,3.83461c-0.00641,0.64758 -0.03118,1.62266 -0.14947,2.50709c-0.14828,1.10871 -0.39589,2.07497 -0.39589,2.07497z" fill="#ffffff"/><path d="M269.19721,212.72838c0,0 -0.19612,-1.25004 -0.27018,-2.49383c-0.0362,-0.60802 -0.06315,-1.21455 -0.06315,-1.67283c0,-0.51943 0.03394,-1.23311 0.07681,-1.92737c0.07348,-1.18985 0.25652,-2.32263 0.25652,-2.32263l22.58333,-0.33334c0,0 0.70844,1.1137 0.87836,2.57811c0.22805,1.96538 0.05343,4.56249 -0.45418,5.94687c-0.35282,0.96221 -1.41305,2.77651 -2.39379,3.83648c-1.64288,1.7756 -3.53039,2.63855 -3.53039,2.63855z" fill="#ffffff"/><path d="M253.95001,207.00191c0,-2.07107 1.67893,-3.75 3.75,-3.75c2.07107,0 3.75,1.67893 3.75,3.75c0,2.07107 -1.67893,3.75 -3.75,3.75c-2.07107,0 -3.75,-1.67893 -3.75,-3.75z" fill="#000000"/><path d="M271.95,207.15191c0,-1.82254 1.47746,-3.3 3.3,-3.3c1.82254,0 3.3,1.47746 3.3,3.3c0,1.82254 -1.47746,3.3 -3.3,3.3c-1.82254,0 -3.3,-1.47746 -3.3,-3.3z" fill="#000000"/><path d="M230.26836,201.41102c0,0 -0.4143,-4.53279 -0.29813,-6.79325c0.06004,-1.16807 0.1894,-2.96748 0.39349,-4.54852c0.23084,-1.78827 0.77174,-3.29719 0.77174,-3.29719c0,0 1.12561,-0.09751 2.85993,0.25979c3.91272,0.80608 10.92362,2.60391 15.09704,3.65885c6.02848,1.52386 18.19836,5.30146 18.19836,5.30146c0,0 6.14839,-1.62651 12.52346,-3.11302c4.8213,-1.12421 9.77225,-2.09913 12.29138,-2.62407c3.20053,-0.66692 7.42725,-0.98154 7.42725,-0.98154c0,0 0.64938,2.26657 1.11066,4.76219c0.39805,2.15351 0.60235,4.47759 0.76533,5.66299c0.20015,1.45572 0.26078,3.99183 0.26078,3.99183l-34.06356,1.76435z" fill="#000000"/><path d="M222.61387,216.89504c0,2.48252 -0.33022,4.60663 -1.23526,6.17517c-1.05808,1.83375 -2.89346,2.90816 -4.43141,2.90816c-1.17917,0 -2.5039,-0.66005 -3.45693,-1.81464c-1.35321,-1.63939 -2.1264,-4.2758 -2.1264,-7.43536c0,-3.27885 0.74344,-6.76674 2.03435,-8.99338c0.82912,-1.43012 2.01636,-2.33995 3.13232,-2.33995c2.85347,0 6.08334,6.11523 6.08334,11.5z" fill="#9c002d"/><path d="M205.94093,219.70785c0.86007,3.0943 -0.2867,6.17157 -2.56141,6.87326c-2.27471,0.70169 -4.81596,-1.2379 -5.67603,-4.33221c-0.86007,-3.0943 0.28671,-6.17157 2.56142,-6.87326c2.27471,-0.70169 4.81596,1.23791 5.67603,4.33221z" fill="#9c002d"/><path d="M311.46752,223.35602c-1.31369,3.95255 -4.04055,6.10461 -6.39898,5.32075c-2.35843,-0.78386 -3.28868,-4.37349 -1.97498,-8.32604c1.31369,-3.95255 4.2072,-6.68794 6.56563,-5.90408c2.35843,0.78386 3.12201,4.95682 1.80832,8.90937z" fill="#9c002d"/><path d="M216.34114,168.24608c0,0 36.90632,11.92564 53.45494,12.98681c2.03627,0.13058 6.04927,-0.00486 11.70716,-0.92608c14.75993,-2.40322 37.01972,-7.78799 37.01972,-7.78799c0,0 -10.43866,4.79727 -20.53739,7.81355c-10.12461,3.02401 -20.9192,5.08493 -28.64806,4.85313c-5.94099,-0.17818 -13.24734,-1.80675 -20.91268,-4.1889c-13.98871,-4.34727 -32.08368,-12.75051 -32.08368,-12.75051z" fill="#9c002d"/><path d="M231.06842,155.06426c0,0 18.18566,7.20617 29.48668,10.73374c2.07846,0.64879 4.22827,1.23363 5.87547,1.54679c1.06644,0.20275 1.92221,0.23882 2.41156,0.28298c1.44246,0.13019 4.45346,0.12439 8.75711,-0.56398c9.2264,-1.47575 22.10553,-4.45407 22.10553,-4.45407c0,0 -4.57139,2.89424 -9.60494,4.74753c-7.29618,2.68637 -16.56439,4.58698 -22.64543,4.01484c-2.54678,-0.23961 -6.60631,-1.05877 -9.84625,-2.20069c-12.02688,-4.23889 -26.53974,-14.10712 -26.53974,-14.10712z" fill="#9c002d"/><path d="M239.4279,203.4655c0,0 0.50491,3.7008 1.99762,6.73408c0.96123,1.95328 2.77812,4.08709 3.96213,5.00201c1.23647,0.95546 4.19907,1.81025 6.75186,2.01103c2.06717,0.16259 3.923,-0.24712 3.923,-0.24712v2.41666c0,0 -3.54227,0.38745 -5.82331,0.20673c-1.77261,-0.14044 -3.48735,-0.64459 -4.76559,-1.27316c-1.06736,-0.52487 -1.77993,-1.13649 -2.44464,-1.69554c-0.5158,-0.4338 -1.19966,-1.06399 -1.75593,-1.81357c-0.74986,-1.01044 -1.41292,-2.23783 -1.68608,-3.49359c-0.23564,-1.08324 -0.55172,-2.53872 -0.55627,-3.66211c-0.00808,-1.9925 0.39721,-4.18543 0.39721,-4.18543z" fill="#dcdcdc"/><path d="M285.01764,219.62576l-1.91667,-2.39103c0,0 1.52076,-0.38829 3.11482,-1.18682c1.04548,-0.52372 2.12249,-1.31888 2.8227,-1.96429c0.46187,-0.42572 1.33294,-1.47301 1.99986,-2.55418c0.94384,-1.5301 1.64595,-3.12804 1.64595,-3.12804c0,0 0.21641,1.34123 -0.05504,2.79185c-0.22524,1.20369 -0.80689,2.4827 -1.26639,3.13324c-0.47506,0.67256 -1.46822,2.15261 -2.45021,2.92579c-1.82316,1.4355 -3.89504,2.37349 -3.89504,2.37349z" fill="#dcdcdc"/><path d="M261.43947,253.82196c-0.53079,-0.10704 -1.61638,-0.77197 -2.80705,-1.80693c-2.12916,-1.85072 -4.81411,-4.88463 -6.82698,-8.02746c-1.52442,-2.38017 -3.01101,-4.8228 -3.87626,-6.86124c-1.20809,-2.84617 -1.48971,-6.00437 -1.48971,-6.00437l29.4,10.8c0,0 -2.16262,3.31765 -4.73877,5.69194c-2.03198,1.87275 -4.35452,3.69126 -6.23857,4.84505c-1.61861,0.99123 -2.91359,1.46566 -3.42266,1.36301z" fill="#cdaf94"/><g><path d="M246.18542,226.52964c1.36046,-2.36997 4.27482,-5.06261 5.97643,-6.57681c1.76845,-1.57369 5.23183,-3.88077 8.34486,-5.47989c3.64307,-1.87139 6.9433,-2.92103 6.9433,-2.92103c0,0 3.62024,0.37532 8.37488,2.0927c5.48534,1.98131 12.38124,5.48409 15.34928,7.93595c3.08586,2.54918 6.20921,6.76506 7.66058,10.71372c0.97856,2.66231 0.91527,6.27429 0.91527,6.27429c0,0 -11.33153,-2.23297 -21.80825,-3.80397c-5.0759,-0.76113 -9.95116,-1.1118 -13.23984,-1.46523c-7.34596,-0.78946 -20.2596,-1.23978 -20.2596,-1.23978c0,0 0.12509,-2.71135 1.74309,-5.52996z" fill="#000000"/><path d="M247.25001,231.05191c0,0 13.20883,0.60996 19.22611,1.25717c5.37726,0.57837 16.37388,2.14283 16.37388,2.14283c0,0 -0.99488,1.3652 -2.61032,3.0971c-1.28166,1.37405 -2.99098,2.97891 -4.64116,4.31595c-2.24568,1.81953 -4.88509,3.6406 -7.02406,4.95283c-2.43566,1.49424 -4.25211,2.35837 -4.62446,2.33412c-0.54234,-0.03532 -5.75519,-3.83998 -9.11765,-7.58415c-1.65936,-1.84773 -3.35452,-3.78843 -4.57528,-5.49255c-2.03465,-2.84026 -3.00707,-5.0233 -3.00707,-5.0233z" fill="#000000"/><path d="M247.15001,230.25191c0,0 0.45192,-2.13632 2.16254,-4.55578c0.69407,-0.98168 2.77836,-3.09986 5.21298,-5.04994c2.53274,-2.02867 5.42816,-3.88365 6.66519,-4.52131c3.07903,-1.58719 5.95929,-2.67297 5.95929,-2.67297c0,0 5.62304,0.61564 11.82332,3.20467c4.09184,1.70861 8.83022,4.9234 10.96246,6.57233c2.23999,1.73226 5.34501,5.09333 6.58929,8.01866c1.24163,2.9191 1.12492,5.60433 1.12492,5.60433c0,0 -5.45588,-1.13613 -11.9384,-2.2829c-5.602,-0.991 -11.97069,-2.06462 -16.24768,-2.6236c-6.95954,-0.90956 -22.31392,-1.6935 -22.31392,-1.6935z" fill="#fbba1f"/><path d="M264.2643,246.51375c-0.34888,-0.01863 -4.86922,-3.16582 -8.01585,-6.40618c-1.58365,-1.63083 -3.175,-3.34849 -4.34796,-4.75709c-1.47883,-1.7759 -2.35047,-3.06054 -2.35047,-3.06054c0,0 2.6615,-0.04117 5.98108,0.07681c3.30294,0.11739 7.25738,0.39333 9.88991,0.63569c5.00739,0.461 15.02901,2.13226 15.02901,2.13226c0,0 -0.82368,1.25917 -2.38027,2.81904c-1.0872,1.0895 -2.63242,2.32569 -4.07866,3.38199c-1.94213,1.4185 -4.04112,2.73049 -5.7942,3.62569c-2.06314,1.05353 -3.64718,1.56756 -3.93259,1.55232z" fill="#f59c1f"/></g></g></g></svg>